<svg width="97" height="20" viewBox="0 0 97 20" fill="none" xmlns="http://www.w3.org/2000/svg">
<path d="M24.3577 7.788L26.8297 0H30.4057L32.8777 7.788H30.3577L29.9737 6.504H27.2617L26.8777 7.788H24.3577ZM29.3497 4.452L28.6177 2.016L27.8857 4.452H29.3497Z" fill="#6448FF"/>
<path d="M33.1936 7.788L35.6656 0H39.2416L41.7136 7.788H39.1936L38.8096 6.504H36.0976L35.7136 7.788H33.1936ZM38.1856 4.452L37.4536 2.016L36.7216 4.452H38.1856Z" fill="#6448FF"/>
<path d="M42.5612 0H46.9532L47.8292 6.516L48.7172 0H53.1092V7.788H50.7092V1.776L49.7612 7.788H45.9092L44.9492 1.728V7.788H42.5612V0Z" fill="#6448FF"/>
<path d="M57.0301 0V4.008C57.0301 4.208 57.0421 4.412 57.0661 4.62C57.0981 4.82 57.1581 5.004 57.2461 5.172C57.3421 5.34 57.4741 5.476 57.6421 5.58C57.8181 5.684 58.0541 5.736 58.3501 5.736C58.6461 5.736 58.8781 5.684 59.0461 5.58C59.2141 5.468 59.3381 5.328 59.4181 5.16C59.4981 4.992 59.5461 4.808 59.5621 4.608C59.5861 4.4 59.5981 4.2 59.5981 4.008V0H61.9981V4.02C61.9981 4.484 61.9421 4.948 61.8301 5.412C61.7261 5.876 61.5341 6.292 61.2541 6.66C60.9821 7.028 60.6101 7.328 60.1381 7.56C59.6661 7.792 59.0661 7.908 58.3381 7.908C57.6181 7.908 57.0181 7.792 56.5381 7.56C56.0581 7.328 55.6781 7.028 55.3981 6.66C55.1181 6.292 54.9181 5.876 54.7981 5.412C54.6861 4.948 54.6301 4.484 54.6301 4.02V0H57.0301Z" fill="#6448FF"/>
<path d="M27.0817 15.98C27.1537 16.404 27.3297 16.696 27.6097 16.856C27.8897 17.008 28.2457 17.084 28.6777 17.084C28.7977 17.084 28.9177 17.076 29.0377 17.06C29.1577 17.044 29.2697 17.02 29.3737 16.988C29.4777 16.948 29.5617 16.9 29.6257 16.844C29.6897 16.788 29.7217 16.72 29.7217 16.64C29.7217 16.528 29.6737 16.436 29.5777 16.364C29.4897 16.292 29.3657 16.232 29.2057 16.184C29.0457 16.128 28.8617 16.08 28.6537 16.04C28.4457 15.992 28.2217 15.944 27.9817 15.896C27.6217 15.824 27.2497 15.736 26.8657 15.632C26.4897 15.52 26.1457 15.372 25.8337 15.188C25.5217 14.996 25.2657 14.748 25.0657 14.444C24.8657 14.14 24.7657 13.756 24.7657 13.292C24.7657 12.844 24.8817 12.468 25.1137 12.164C25.3537 11.86 25.6497 11.616 26.0017 11.432C26.3617 11.24 26.7537 11.104 27.1777 11.024C27.6017 10.936 28.0017 10.892 28.3777 10.892C28.8657 10.892 29.3377 10.952 29.7937 11.072C30.2577 11.184 30.6657 11.36 31.0177 11.6C31.3777 11.84 31.6617 12.144 31.8697 12.512C32.0857 12.88 32.1817 13.312 32.1577 13.808H29.7217C29.6977 13.48 29.5617 13.232 29.3137 13.064C29.0657 12.896 28.7417 12.812 28.3417 12.812C28.2217 12.812 28.1017 12.82 27.9817 12.836C27.8617 12.844 27.7537 12.868 27.6577 12.908C27.5617 12.94 27.4817 12.988 27.4177 13.052C27.3537 13.108 27.3217 13.18 27.3217 13.268C27.3217 13.372 27.3617 13.464 27.4417 13.544C27.5217 13.616 27.6297 13.68 27.7657 13.736C27.9017 13.784 28.0617 13.828 28.2457 13.868C28.4297 13.908 28.6297 13.948 28.8457 13.988C29.2137 14.06 29.5977 14.144 29.9977 14.24C30.4057 14.328 30.7777 14.464 31.1137 14.648C31.4497 14.832 31.7257 15.08 31.9417 15.392C32.1657 15.696 32.2777 16.1 32.2777 16.604C32.2777 17.052 32.1737 17.428 31.9657 17.732C31.7577 18.036 31.4777 18.284 31.1257 18.476C30.7817 18.66 30.3817 18.792 29.9257 18.872C29.4777 18.96 29.0137 19.004 28.5337 19.004C27.9657 19.004 27.4377 18.948 26.9497 18.836C26.4617 18.724 26.0417 18.548 25.6897 18.308C25.3377 18.06 25.0657 17.744 24.8737 17.36C24.6817 16.976 24.5977 16.516 24.6217 15.98H27.0817Z" fill="#6448FF"/>
<path d="M33.1315 14.888C33.1315 14.272 33.2475 13.716 33.4795 13.22C33.7195 12.724 34.0355 12.304 34.4275 11.96C34.8195 11.608 35.2755 11.34 35.7955 11.156C36.3155 10.964 36.8555 10.868 37.4155 10.868C37.9835 10.868 38.5235 10.96 39.0355 11.144C39.5475 11.328 39.9995 11.596 40.3915 11.948C40.7835 12.292 41.0955 12.712 41.3275 13.208C41.5595 13.704 41.6755 14.264 41.6755 14.888C41.6755 15.512 41.5595 16.072 41.3275 16.568C41.0955 17.064 40.7835 17.488 40.3915 17.84C39.9995 18.184 39.5475 18.448 39.0355 18.632C38.5235 18.816 37.9835 18.908 37.4155 18.908C36.8555 18.908 36.3155 18.816 35.7955 18.632C35.2835 18.44 34.8275 18.172 34.4275 17.828C34.0355 17.476 33.7195 17.052 33.4795 16.556C33.2475 16.06 33.1315 15.504 33.1315 14.888ZM37.4155 16.64C37.6795 16.64 37.9195 16.596 38.1355 16.508C38.3595 16.42 38.5515 16.3 38.7115 16.148C38.8715 15.988 38.9955 15.8 39.0835 15.584C39.1795 15.368 39.2275 15.136 39.2275 14.888C39.2275 14.632 39.1795 14.4 39.0835 14.192C38.9955 13.976 38.8715 13.788 38.7115 13.628C38.5515 13.468 38.3595 13.344 38.1355 13.256C37.9195 13.168 37.6795 13.124 37.4155 13.124C37.1515 13.124 36.9075 13.168 36.6835 13.256C36.4595 13.344 36.2635 13.468 36.0955 13.628C35.9355 13.788 35.8075 13.976 35.7115 14.192C35.6235 14.4 35.5795 14.632 35.5795 14.888C35.5795 15.136 35.6235 15.368 35.7115 15.584C35.8075 15.8 35.9355 15.988 36.0955 16.148C36.2635 16.3 36.4595 16.42 36.6835 16.508C36.9075 16.596 37.1515 16.64 37.4155 16.64Z" fill="#6448FF"/>
<path d="M42.9362 18.788V11H45.3362V16.748H48.9722V18.788H42.9362Z" fill="#6448FF"/>
<path d="M52.2957 11V15.008C52.2957 15.208 52.3077 15.412 52.3317 15.62C52.3637 15.82 52.4237 16.004 52.5117 16.172C52.6077 16.34 52.7397 16.476 52.9077 16.58C53.0837 16.684 53.3197 16.736 53.6157 16.736C53.9117 16.736 54.1437 16.684 54.3117 16.58C54.4797 16.468 54.6037 16.328 54.6837 16.16C54.7637 15.992 54.8117 15.808 54.8277 15.608C54.8517 15.4 54.8637 15.2 54.8637 15.008V11H57.2637V15.02C57.2637 15.484 57.2077 15.948 57.0957 16.412C56.9917 16.876 56.7997 17.292 56.5197 17.66C56.2477 18.028 55.8757 18.328 55.4037 18.56C54.9317 18.792 54.3317 18.908 53.6037 18.908C52.8837 18.908 52.2837 18.792 51.8037 18.56C51.3237 18.328 50.9437 18.028 50.6637 17.66C50.3837 17.292 50.1837 16.876 50.0637 16.412C49.9517 15.948 49.8957 15.484 49.8957 15.02V11H52.2957Z" fill="#6448FF"/>
<path d="M60.6425 18.788V13.04H58.2425V11H65.4425V13.04H63.0425V18.788H60.6425Z" fill="#6448FF"/>
<path d="M66.5964 18.788V11H69.0084V18.788H66.5964Z" fill="#6448FF"/>
<path d="M70.2682 14.888C70.2682 14.272 70.3842 13.716 70.6162 13.22C70.8562 12.724 71.1722 12.304 71.5642 11.96C71.9562 11.608 72.4122 11.34 72.9322 11.156C73.4522 10.964 73.9922 10.868 74.5522 10.868C75.1202 10.868 75.6602 10.96 76.1722 11.144C76.6842 11.328 77.1362 11.596 77.5282 11.948C77.9202 12.292 78.2322 12.712 78.4642 13.208C78.6962 13.704 78.8122 14.264 78.8122 14.888C78.8122 15.512 78.6962 16.072 78.4642 16.568C78.2322 17.064 77.9202 17.488 77.5282 17.84C77.1362 18.184 76.6842 18.448 76.1722 18.632C75.6602 18.816 75.1202 18.908 74.5522 18.908C73.9922 18.908 73.4522 18.816 72.9322 18.632C72.4202 18.44 71.9642 18.172 71.5642 17.828C71.1722 17.476 70.8562 17.052 70.6162 16.556C70.3842 16.06 70.2682 15.504 70.2682 14.888ZM74.5522 16.64C74.8162 16.64 75.0562 16.596 75.2722 16.508C75.4962 16.42 75.6882 16.3 75.8482 16.148C76.0082 15.988 76.1322 15.8 76.2202 15.584C76.3162 15.368 76.3642 15.136 76.3642 14.888C76.3642 14.632 76.3162 14.4 76.2202 14.192C76.1322 13.976 76.0082 13.788 75.8482 13.628C75.6882 13.468 75.4962 13.344 75.2722 13.256C75.0562 13.168 74.8162 13.124 74.5522 13.124C74.2882 13.124 74.0442 13.168 73.8202 13.256C73.5962 13.344 73.4002 13.468 73.2322 13.628C73.0722 13.788 72.9442 13.976 72.8482 14.192C72.7602 14.4 72.7162 14.632 72.7162 14.888C72.7162 15.136 72.7602 15.368 72.8482 15.584C72.9442 15.8 73.0722 15.988 73.2322 16.148C73.4002 16.3 73.5962 16.42 73.8202 16.508C74.0442 16.596 74.2882 16.64 74.5522 16.64Z" fill="#6448FF"/>
<path d="M80.0729 18.788V11H83.9129L85.5809 16.172V11H87.9809V18.788H84.1409L82.4729 13.628V18.788H80.0729Z" fill="#6448FF"/>
<path d="M91.6051 15.98C91.6771 16.404 91.8531 16.696 92.1331 16.856C92.4131 17.008 92.7691 17.084 93.2011 17.084C93.3211 17.084 93.4411 17.076 93.5611 17.06C93.6811 17.044 93.7931 17.02 93.8971 16.988C94.0011 16.948 94.0851 16.9 94.1491 16.844C94.2131 16.788 94.2451 16.72 94.2451 16.64C94.2451 16.528 94.1971 16.436 94.1011 16.364C94.0131 16.292 93.8891 16.232 93.7291 16.184C93.5691 16.128 93.3851 16.08 93.1771 16.04C92.9691 15.992 92.7451 15.944 92.5051 15.896C92.1451 15.824 91.7731 15.736 91.3891 15.632C91.0131 15.52 90.6691 15.372 90.3571 15.188C90.0451 14.996 89.7891 14.748 89.5891 14.444C89.3891 14.14 89.2891 13.756 89.2891 13.292C89.2891 12.844 89.4051 12.468 89.6371 12.164C89.8771 11.86 90.1731 11.616 90.5251 11.432C90.8851 11.24 91.2771 11.104 91.7011 11.024C92.1251 10.936 92.5251 10.892 92.9011 10.892C93.3891 10.892 93.8611 10.952 94.3171 11.072C94.7811 11.184 95.1891 11.36 95.5411 11.6C95.9011 11.84 96.1851 12.144 96.3931 12.512C96.6091 12.88 96.7051 13.312 96.6811 13.808H94.2451C94.2211 13.48 94.0851 13.232 93.8371 13.064C93.5891 12.896 93.2651 12.812 92.8651 12.812C92.7451 12.812 92.6251 12.82 92.5051 12.836C92.3851 12.844 92.2771 12.868 92.1811 12.908C92.0851 12.94 92.0051 12.988 91.9411 13.052C91.8771 13.108 91.8451 13.18 91.8451 13.268C91.8451 13.372 91.8851 13.464 91.9651 13.544C92.0451 13.616 92.1531 13.68 92.2891 13.736C92.4251 13.784 92.5851 13.828 92.7691 13.868C92.9531 13.908 93.1531 13.948 93.3691 13.988C93.7371 14.06 94.1211 14.144 94.5211 14.24C94.9291 14.328 95.3011 14.464 95.6371 14.648C95.9731 14.832 96.2491 15.08 96.4651 15.392C96.6891 15.696 96.8011 16.1 96.8011 16.604C96.8011 17.052 96.6971 17.428 96.4891 17.732C96.2811 18.036 96.0011 18.284 95.6491 18.476C95.3051 18.66 94.9051 18.792 94.4491 18.872C94.0011 18.96 93.5371 19.004 93.0571 19.004C92.4891 19.004 91.9611 18.948 91.4731 18.836C90.9851 18.724 90.5651 18.548 90.2131 18.308C89.8611 18.06 89.5891 17.744 89.3971 17.36C89.2051 16.976 89.1211 16.516 89.1451 15.98H91.6051Z" fill="#6448FF"/>
<path d="M8.986 0.54093C9.75109 0.49937 10.325 0.959063 10.5798 1.4921C10.8229 2.00107 10.8207 2.64492 10.4821 3.18644C9.97273 4.00141 9.75519 4.96592 9.86393 5.92081C9.9727 6.87565 10.4022 7.76569 11.0817 8.44523C11.7612 9.12463 12.6514 9.55329 13.6061 9.66202C14.5609 9.77067 15.5247 9.55316 16.3395 9.04386L16.4411 8.98429C16.9585 8.7066 17.5541 8.71808 18.0329 8.9462C18.5343 9.18518 18.9698 9.70444 18.988 10.3984L18.986 10.539C18.887 12.3714 18.2588 14.1356 17.1784 15.6191C16.0979 17.1026 14.611 18.242 12.8971 18.8984C11.1834 19.5547 9.31608 19.7005 7.52116 19.3183C5.72616 18.9361 4.08065 18.0417 2.78288 16.7441C1.4851 15.4464 0.591051 13.8007 0.208658 12.0058C-0.173692 10.2109 -0.0285834 8.34367 0.627603 6.6298C1.28379 4.91596 2.42266 3.42916 3.90592 2.34855C5.38915 1.26804 7.15363 0.640158 8.986 0.54093ZM7.69889 3.26261C6.86757 3.48394 6.0796 3.85766 5.3776 4.36906C4.28487 5.16521 3.44606 6.26075 2.96256 7.52335C2.47903 8.78625 2.37123 10.1626 2.65299 11.4853C2.93477 12.8079 3.59419 14.0203 4.55046 14.9765C5.50666 15.9326 6.71913 16.5913 8.04167 16.873C9.36432 17.1546 10.7407 17.0471 12.0036 16.5634C13.2663 16.0797 14.3618 15.2404 15.1579 14.1474C15.6688 13.4458 16.0411 12.6587 16.2624 11.828C15.3239 12.1477 14.3206 12.26 13.3229 12.1464C11.8063 11.9737 10.3925 11.2921 9.31315 10.2128C8.23404 9.1336 7.55234 7.72036 7.37956 6.20402C7.26587 5.20576 7.37887 4.20157 7.69889 3.26261Z" fill="#6448FF"/>
</svg>
